<svg width="838" height="839" xmlns="http://www.w3.org/2000/svg" xmlns:xlink="http://www.w3.org/1999/xlink" xml:space="preserve" overflow="hidden"><defs><clipPath id="clip0"><rect x="669" y="192" width="838" height="839"/></clipPath></defs><g clip-path="url(#clip0)" transform="translate(-669 -192)"><path d="M1010.46 230.758C1052.74 188.5 1121.28 188.522 1163.53 230.807L1469.59 537.063C1511.85 579.348 1511.83 647.884 1469.54 690.142L1163.29 996.201C1121 1038.46 1052.47 1038.44 1010.21 996.151L704.151 689.895C661.893 647.61 661.915 579.074 704.2 536.816Z" stroke="#ED7D31" stroke-width="4.58333" stroke-linecap="butt" stroke-linejoin="miter" stroke-miterlimit="8" stroke-opacity="1" fill="#ED7D31" fill-rule="evenodd" fill-opacity="1"/><path d="M1018.66 261.599C1057.55 222.735 1120.58 222.755 1159.45 261.645L1440.93 543.306C1479.79 582.195 1479.77 645.227 1440.88 684.091L1159.22 965.571C1120.33 1004.44 1057.3 1004.42 1018.44 965.526L736.956 683.864C698.092 644.975 698.112 581.943 737.001 543.079Z" stroke="#ED7D31" stroke-width="4.58333" stroke-linecap="butt" stroke-linejoin="miter" stroke-miterlimit="8" stroke-opacity="1" fill="#FFFFFF" fill-rule="evenodd" fill-opacity="1"/><path d="M1057.5 420C1057.5 414.201 1062.2 409.5 1068 409.5L1110 409.5C1115.8 409.5 1120.5 414.201 1120.5 420L1120.5 778C1120.5 783.799 1115.8 788.5 1110 788.5L1068 788.5C1062.2 788.5 1057.5 783.799 1057.5 778Z" stroke="#ED7D31" stroke-width="4.58333" stroke-linecap="butt" stroke-linejoin="miter" stroke-miterlimit="8" stroke-opacity="1" fill="#ED7D31" fill-rule="evenodd" fill-opacity="1"/><path d="M1151.83 391C1154.69 391 1157 393.313 1157 396.167L1157 416.833C1157 419.687 1154.69 422 1151.83 422L1023.17 422C1020.31 422 1018 419.687 1018 416.833L1018 396.167C1018 393.313 1020.31 391 1023.17 391Z" fill="#ED7D31" fill-rule="evenodd" fill-opacity="1"/><path d="M1153.83 772C1156.69 772 1159 774.313 1159 777.167L1159 797.833C1159 800.687 1156.69 803 1153.83 803L1025.17 803C1022.31 803 1020 800.687 1020 797.833L1020 777.167C1020 774.313 1022.31 772 1025.17 772Z" fill="#ED7D31" fill-rule="evenodd" fill-opacity="1"/></g></svg>